<svg width="998" height="169" viewBox="0 0 998 169" fill="none" xmlns="http://www.w3.org/2000/svg">
<path d="M244.36 93.816C244.36 88.824 245.128 84.408 246.664 80.568C248.264 76.728 250.408 73.528 253.096 70.968C255.848 68.344 259.048 66.36 262.696 65.016C266.408 63.672 270.408 63 274.696 63C278.984 63 282.952 63.672 286.6 65.016C290.312 66.36 293.544 68.344 296.296 70.968C299.048 73.528 301.192 76.728 302.728 80.568C304.328 84.408 305.128 88.824 305.128 93.816C305.128 98.808 304.36 103.256 302.824 107.16C301.288 111 299.144 114.232 296.392 116.856C293.704 119.416 290.504 121.368 286.792 122.712C283.08 124.056 279.048 124.728 274.696 124.728C270.344 124.728 266.312 124.056 262.6 122.712C258.888 121.304 255.688 119.288 253 116.664C250.312 114.04 248.2 110.808 246.664 106.968C245.128 103.128 244.36 98.744 244.36 93.816ZM261.64 93.816C261.64 99.64 262.824 103.992 265.192 106.872C267.56 109.752 270.728 111.192 274.696 111.192C278.728 111.192 281.928 109.752 284.296 106.872C286.664 103.992 287.848 99.64 287.848 93.816C287.848 88.056 286.664 83.736 284.296 80.856C281.992 77.976 278.824 76.536 274.792 76.536C270.824 76.536 267.624 77.976 265.192 80.856C262.824 83.672 261.64 87.992 261.64 93.816ZM367.444 120.984C366.548 121.88 365.236 122.552 363.508 123C361.844 123.512 359.828 123.768 357.46 123.768C355.092 123.768 352.852 123.416 350.74 122.712C348.628 122.008 346.9 120.312 345.556 117.624L336.052 98.232C335.092 96.248 334.228 94.392 333.46 92.664C332.692 90.872 331.86 88.824 330.964 86.52L330.388 86.616C330.644 90.072 330.772 93.592 330.772 97.176C330.836 100.76 330.868 104.28 330.868 107.736V122.616C330.164 122.808 329.076 123 327.604 123.192C326.196 123.384 324.788 123.48 323.38 123.48C321.972 123.48 320.724 123.384 319.636 123.192C318.548 123 317.652 122.616 316.948 122.04C316.244 121.464 315.7 120.696 315.316 119.736C314.932 118.712 314.74 117.4 314.74 115.8V67.8C315.636 66.52 317.012 65.56 318.868 64.92C320.724 64.28 322.708 63.96 324.82 63.96C327.188 63.96 329.428 64.344 331.54 65.112C333.716 65.816 335.444 67.48 336.724 70.104L346.324 89.496C347.284 91.48 348.148 93.368 348.916 95.16C349.684 96.888 350.516 98.904 351.412 101.208L351.892 101.112C351.636 97.656 351.476 94.2 351.412 90.744C351.348 87.288 351.316 83.832 351.316 80.376V64.824C352.02 64.632 353.076 64.44 354.484 64.248C355.956 64.056 357.396 63.96 358.804 63.96C361.62 63.96 363.764 64.472 365.236 65.496C366.708 66.456 367.444 68.504 367.444 71.64V120.984ZM379.896 73.752C379.896 71 380.696 68.824 382.296 67.224C383.896 65.624 386.072 64.824 388.824 64.824H420.504C420.952 65.528 421.336 66.456 421.656 67.608C422.04 68.76 422.232 69.976 422.232 71.256C422.232 73.688 421.688 75.416 420.6 76.44C419.576 77.464 418.2 77.976 416.472 77.976H396.216V86.904H417.816C418.264 87.608 418.648 88.536 418.968 89.688C419.352 90.776 419.544 91.96 419.544 93.24C419.544 95.672 419.032 97.4 418.008 98.424C416.984 99.448 415.608 99.96 413.88 99.96H396.216V110.04H420.888C421.336 110.744 421.72 111.672 422.04 112.824C422.424 113.976 422.616 115.192 422.616 116.472C422.616 118.904 422.072 120.664 420.984 121.752C419.96 122.776 418.584 123.288 416.856 123.288H388.824C386.072 123.288 383.896 122.488 382.296 120.888C380.696 119.288 379.896 117.112 379.896 114.36V73.752ZM429.322 85.08C429.322 82.392 430.154 80.152 431.818 78.36C433.482 76.568 435.754 75.672 438.634 75.672C441.514 75.672 443.786 76.568 445.45 78.36C447.114 80.152 447.946 82.392 447.946 85.08C447.946 87.768 447.114 90.008 445.45 91.8C443.786 93.592 441.514 94.488 438.634 94.488C435.754 94.488 433.482 93.592 431.818 91.8C430.154 90.008 429.322 87.768 429.322 85.08ZM429.322 115.224C429.322 112.536 430.154 110.296 431.818 108.504C433.482 106.712 435.754 105.816 438.634 105.816C441.514 105.816 443.786 106.712 445.45 108.504C447.114 110.296 447.946 112.536 447.946 115.224C447.946 117.912 447.114 120.152 445.45 121.944C443.786 123.736 441.514 124.632 438.634 124.632C435.754 124.632 433.482 123.736 431.818 121.944C430.154 120.152 429.322 117.912 429.322 115.224ZM454.072 85.08C454.072 82.392 454.904 80.152 456.568 78.36C458.232 76.568 460.504 75.672 463.384 75.672C466.264 75.672 468.536 76.568 470.2 78.36C471.864 80.152 472.696 82.392 472.696 85.08C472.696 87.768 471.864 90.008 470.2 91.8C468.536 93.592 466.264 94.488 463.384 94.488C460.504 94.488 458.232 93.592 456.568 91.8C454.904 90.008 454.072 87.768 454.072 85.08ZM454.072 115.224C454.072 112.536 454.904 110.296 456.568 108.504C458.232 106.712 460.504 105.816 463.384 105.816C466.264 105.816 468.536 106.712 470.2 108.504C471.864 110.296 472.696 112.536 472.696 115.224C472.696 117.912 471.864 120.152 470.2 121.944C468.536 123.736 466.264 124.632 463.384 124.632C460.504 124.632 458.232 123.736 456.568 121.944C454.904 120.152 454.072 117.912 454.072 115.224ZM498.694 104.184V122.616C497.99 122.808 496.87 123 495.334 123.192C493.862 123.384 492.39 123.48 490.918 123.48C489.446 123.48 488.134 123.352 486.982 123.096C485.894 122.904 484.966 122.52 484.198 121.944C483.494 121.368 482.95 120.568 482.566 119.544C482.182 118.52 481.99 117.176 481.99 115.512V70.296C481.99 68.952 482.342 67.928 483.046 67.224C483.814 66.456 484.838 65.848 486.118 65.4C488.294 64.632 490.822 64.088 493.702 63.768C496.582 63.384 499.654 63.192 502.918 63.192C511.75 63.192 518.406 65.048 522.886 68.76C527.366 72.472 529.606 77.496 529.606 83.832C529.606 87.8 528.582 91.192 526.534 94.008C524.486 96.824 522.054 99 519.238 100.536C521.542 103.672 523.814 106.616 526.054 109.368C528.294 112.12 530.054 114.616 531.334 116.856C530.694 119.096 529.51 120.824 527.782 122.04C526.118 123.192 524.23 123.768 522.118 123.768C520.71 123.768 519.494 123.608 518.47 123.288C517.446 122.968 516.55 122.52 515.782 121.944C515.014 121.368 514.31 120.664 513.67 119.832C513.03 119 512.422 118.104 511.846 117.144L503.782 104.184H498.694ZM504.742 91.416C507.174 91.416 509.094 90.808 510.502 89.592C511.91 88.312 512.614 86.456 512.614 84.024C512.614 81.592 511.814 79.768 510.214 78.552C508.678 77.272 506.214 76.632 502.822 76.632C501.862 76.632 501.094 76.664 500.518 76.728C499.942 76.792 499.302 76.888 498.598 77.016V91.416H504.742ZM540.49 73.752C540.49 71 541.29 68.824 542.89 67.224C544.49 65.624 546.666 64.824 549.418 64.824H581.098C581.546 65.528 581.93 66.456 582.25 67.608C582.634 68.76 582.826 69.976 582.826 71.256C582.826 73.688 582.282 75.416 581.194 76.44C580.17 77.464 578.794 77.976 577.066 77.976H556.81V86.904H578.41C578.858 87.608 579.242 88.536 579.562 89.688C579.946 90.776 580.138 91.96 580.138 93.24C580.138 95.672 579.626 97.4 578.602 98.424C577.578 99.448 576.202 99.96 574.474 99.96H556.81V110.04H581.482C581.93 110.744 582.314 111.672 582.634 112.824C583.018 113.976 583.21 115.192 583.21 116.472C583.21 118.904 582.666 120.664 581.578 121.752C580.554 122.776 579.178 123.288 577.45 123.288H549.418C546.666 123.288 544.49 122.488 542.89 120.888C541.29 119.288 540.49 117.112 540.49 114.36V73.752ZM610.065 99.864C607.249 98.904 604.689 97.944 602.385 96.984C600.081 95.96 598.097 94.744 596.433 93.336C594.769 91.928 593.457 90.264 592.497 88.344C591.601 86.36 591.153 83.96 591.153 81.144C591.153 75.704 593.233 71.352 597.393 68.088C601.617 64.824 607.505 63.192 615.057 63.192C617.809 63.192 620.369 63.384 622.737 63.768C625.105 64.152 627.121 64.76 628.785 65.592C630.513 66.36 631.857 67.384 632.817 68.664C633.777 69.88 634.257 71.32 634.257 72.984C634.257 74.648 633.873 76.088 633.105 77.304C632.337 78.456 631.409 79.448 630.321 80.28C628.913 79.384 627.025 78.616 624.657 77.976C622.289 77.272 619.697 76.92 616.881 76.92C614.001 76.92 611.889 77.336 610.545 78.168C609.201 78.936 608.529 79.928 608.529 81.144C608.529 82.104 608.945 82.904 609.777 83.544C610.609 84.12 611.857 84.664 613.521 85.176L618.609 86.808C624.625 88.728 629.233 91.192 632.433 94.2C635.697 97.144 637.329 101.176 637.329 106.296C637.329 111.736 635.185 116.152 630.897 119.544C626.609 122.872 620.305 124.536 611.984 124.536C609.041 124.536 606.289 124.28 603.729 123.768C601.233 123.32 599.025 122.648 597.105 121.752C595.249 120.792 593.777 119.64 592.689 118.296C591.665 116.888 591.153 115.288 591.153 113.496C591.153 111.64 591.697 110.072 592.785 108.792C593.873 107.448 595.057 106.424 596.337 105.72C598.129 107.128 600.305 108.344 602.865 109.368C605.489 110.392 608.337 110.904 611.409 110.904C614.545 110.904 616.753 110.424 618.033 109.464C619.313 108.504 619.953 107.384 619.953 106.104C619.953 104.824 619.441 103.864 618.417 103.224C617.393 102.52 615.953 101.848 614.097 101.208L610.065 99.864ZM663.228 122.616C662.524 122.808 661.404 123 659.868 123.192C658.396 123.384 656.924 123.48 655.452 123.48C653.98 123.48 652.668 123.352 651.516 123.096C650.428 122.904 649.5 122.52 648.732 121.944C647.964 121.368 647.388 120.568 647.004 119.544C646.62 118.52 646.428 117.176 646.428 115.512V64.824C647.132 64.696 648.252 64.536 649.788 64.344C651.324 64.088 652.796 63.96 654.204 63.96C655.676 63.96 656.956 64.088 658.044 64.344C659.196 64.536 660.156 64.92 660.924 65.496C661.692 66.072 662.268 66.872 662.652 67.896C663.036 68.92 663.228 70.264 663.228 71.928V122.616ZM692.382 110.52C693.086 110.648 693.95 110.776 694.974 110.904C695.998 110.968 696.958 111 697.854 111C700.03 111 702.014 110.68 703.806 110.04C705.662 109.4 707.23 108.408 708.51 107.064C709.854 105.72 710.878 103.992 711.582 101.88C712.35 99.704 712.734 97.112 712.734 94.104C712.734 88.344 711.39 84.024 708.702 81.144C706.014 78.2 702.43 76.728 697.95 76.728C697.054 76.728 696.126 76.76 695.166 76.824C694.27 76.888 693.342 76.984 692.382 77.112V110.52ZM697.758 124.536C696.67 124.536 695.422 124.504 694.014 124.44C692.606 124.376 691.134 124.248 689.598 124.056C688.126 123.864 686.622 123.608 685.086 123.288C683.614 123.032 682.238 122.648 680.958 122.136C677.438 120.792 675.678 118.456 675.678 115.128V70.296C675.678 68.952 676.03 67.928 676.734 67.224C677.502 66.456 678.526 65.848 679.806 65.4C682.558 64.504 685.47 63.928 688.542 63.672C691.614 63.352 694.366 63.192 696.798 63.192C701.79 63.192 706.302 63.8 710.334 65.016C714.43 66.232 717.918 68.12 720.798 70.68C723.742 73.176 726.014 76.344 727.614 80.184C729.214 84.024 730.014 88.568 730.014 93.816C730.014 98.936 729.246 103.416 727.71 107.256C726.174 111.032 723.966 114.232 721.086 116.856C718.27 119.416 714.878 121.336 710.91 122.616C706.942 123.896 702.558 124.536 697.758 124.536ZM739.615 73.752C739.615 71 740.415 68.824 742.015 67.224C743.615 65.624 745.791 64.824 748.543 64.824H780.223C780.671 65.528 781.055 66.456 781.375 67.608C781.759 68.76 781.951 69.976 781.951 71.256C781.951 73.688 781.407 75.416 780.319 76.44C779.295 77.464 777.919 77.976 776.191 77.976H755.935V86.904H777.535C777.983 87.608 778.367 88.536 778.687 89.688C779.071 90.776 779.263 91.96 779.263 93.24C779.263 95.672 778.751 97.4 777.727 98.424C776.703 99.448 775.327 99.96 773.599 99.96H755.935V110.04H780.607C781.055 110.744 781.439 111.672 781.759 112.824C782.143 113.976 782.335 115.192 782.335 116.472C782.335 118.904 781.791 120.664 780.703 121.752C779.679 122.776 778.303 123.288 776.575 123.288H748.543C745.791 123.288 743.615 122.488 742.015 120.888C740.415 119.288 739.615 117.112 739.615 114.36V73.752ZM844.913 120.984C844.017 121.88 842.705 122.552 840.977 123C839.313 123.512 837.297 123.768 834.929 123.768C832.561 123.768 830.321 123.416 828.209 122.712C826.097 122.008 824.369 120.312 823.025 117.624L813.521 98.232C812.561 96.248 811.697 94.392 810.929 92.664C810.161 90.872 809.329 88.824 808.433 86.52L807.857 86.616C808.113 90.072 808.241 93.592 808.241 97.176C808.305 100.76 808.337 104.28 808.337 107.736V122.616C807.633 122.808 806.545 123 805.073 123.192C803.665 123.384 802.257 123.48 800.849 123.48C799.441 123.48 798.193 123.384 797.105 123.192C796.017 123 795.121 122.616 794.417 122.04C793.713 121.464 793.169 120.696 792.785 119.736C792.401 118.712 792.209 117.4 792.209 115.8V67.8C793.105 66.52 794.481 65.56 796.337 64.92C798.193 64.28 800.177 63.96 802.289 63.96C804.657 63.96 806.897 64.344 809.009 65.112C811.185 65.816 812.913 67.48 814.193 70.104L823.793 89.496C824.753 91.48 825.617 93.368 826.385 95.16C827.153 96.888 827.985 98.904 828.881 101.208L829.361 101.112C829.105 97.656 828.945 94.2 828.881 90.744C828.817 87.288 828.785 83.832 828.785 80.376V64.824C829.489 64.632 830.545 64.44 831.953 64.248C833.425 64.056 834.865 63.96 836.273 63.96C839.089 63.96 841.233 64.472 842.705 65.496C844.177 66.456 844.913 68.504 844.913 71.64V120.984ZM854.677 78.264C854.229 77.56 853.813 76.6 853.429 75.384C853.045 74.168 852.853 72.888 852.853 71.544C852.853 69.048 853.397 67.256 854.485 66.168C855.637 65.08 857.109 64.536 858.901 64.536H900.757C901.205 65.24 901.621 66.2 902.005 67.416C902.389 68.632 902.581 69.912 902.581 71.256C902.581 73.752 902.005 75.544 900.853 76.632C899.765 77.72 898.325 78.264 896.533 78.264H885.877V122.616C885.173 122.808 884.053 123 882.517 123.192C881.045 123.384 879.573 123.48 878.101 123.48C876.629 123.48 875.317 123.352 874.165 123.096C873.077 122.904 872.149 122.52 871.381 121.944C870.613 121.368 870.037 120.568 869.653 119.544C869.269 118.52 869.077 117.176 869.077 115.512V78.264H854.677Z" fill="url(#paint0_linear_615_2)"/>
<path d="M188.186 76.0728C190.606 77.9682 192.02 80.8716 192.02 83.9459V123.111C192.02 128.634 187.543 133.111 182.02 133.111H168.102C162.579 133.111 158.102 128.634 158.102 123.111V109.345C158.102 103.822 153.625 99.3446 148.102 99.3446H139.899C134.376 99.3446 129.899 103.822 129.899 109.345V123.111C129.899 128.634 125.422 133.111 119.899 133.111H105.981C100.458 133.111 95.9806 128.634 95.9806 123.111V83.9459C95.9806 80.8716 97.3946 77.9682 99.8151 76.0728L137.835 46.2989C141.456 43.4631 146.545 43.4631 150.166 46.2989L188.186 76.0728Z" fill="url(#paint1_linear_615_2)"/>
<path d="M78.7448 70.8261C76.6371 67.7779 77.2522 63.6178 80.1518 61.31L137.773 15.4492C141.417 12.5483 146.583 12.5483 150.227 15.4492L207.848 61.31C210.748 63.6178 211.363 67.7779 209.255 70.8261V70.8261C206.937 74.1786 202.266 74.8693 199.076 72.331L150.227 33.4518C146.583 30.5508 141.417 30.5508 137.773 33.4518L88.9236 72.331C85.7344 74.8693 81.063 74.1786 78.7448 70.8261V70.8261Z" fill="url(#paint2_linear_615_2)"/>
<path d="M185.026 4.88873C189.736 4.88873 193.554 8.70684 193.554 13.4167V22.3411C193.554 29.4833 185.3 33.4615 179.713 29.0119V29.0119C177.682 27.3938 176.498 24.9382 176.498 22.3411V13.4167C176.498 8.70684 180.316 4.88873 185.026 4.88873V4.88873Z" fill="url(#paint3_linear_615_2)"/>
<defs>
<linearGradient id="paint0_linear_615_2" x1="471.555" y1="66" x2="471.819" y2="122.999" gradientUnits="userSpaceOnUse">
<stop stop-color="#03045E"/>
<stop offset="1" stop-color="#023E8A"/>
</linearGradient>
<linearGradient id="paint1_linear_615_2" x1="144" y1="49.5" x2="144" y2="133" gradientUnits="userSpaceOnUse">
<stop stop-color="#03045E"/>
<stop offset="1" stop-color="#023E8A"/>
</linearGradient>
<linearGradient id="paint2_linear_615_2" x1="144" y1="10.4928" x2="144" y2="127.5" gradientUnits="userSpaceOnUse">
<stop stop-color="#03045E"/>
<stop offset="1" stop-color="#023E8A"/>
</linearGradient>
<linearGradient id="paint3_linear_615_2" x1="185.026" y1="4.88873" x2="185" y2="131" gradientUnits="userSpaceOnUse">
<stop stop-color="#03045E"/>
<stop offset="1" stop-color="#023E8A"/>
</linearGradient>
</defs>
</svg>
